<svg width="115" height="116" viewBox="0 0 115 116" fill="none" xmlns="http://www.w3.org/2000/svg">
<path d="M80.2272 0.727295V6.45457H91.5909V12.1818H97.2727V17.9091H102.954V23.6364H108.636V35.0909H114.318V80.9091H108.636V92.3637H102.954V98.0909H97.2727V103.818H91.5909V109.545H80.2272V115.273H34.7727V109.545H23.409V103.818H17.7272V98.0909H12.0454V92.3637H6.36358V80.9091H0.681763V35.0909H6.36358V23.6364H12.0454V17.9091H17.7272V12.1818H23.409V6.45457H34.7727V0.727295H80.2272ZM40.4545 29.3637V86.6364H68.8636V80.9091H74.5454V63.7273H68.8636V52.2728H74.5454V35.0909H68.8636V29.3637H40.4545ZM51.8181 40.8182H63.1818V52.2728H51.8181V40.8182ZM63.1818 63.7273V75.1818H51.8181V63.7273H63.1818Z" fill="black"/>
</svg>
