<svg width="110" height="108" viewBox="0 0 110 108" fill="none" xmlns="http://www.w3.org/2000/svg">
<path fill-rule="evenodd" clip-rule="evenodd" d="M54.995 0C24.63 0 0 24.625 0 55C0 79.3 15.76 99.915 37.615 107.185C40.365 107.695 41.365 105.995 41.365 104.535C41.365 103.235 41.32 99.775 41.295 95.185C25.995 98.505 22.765 87.81 22.765 87.81C20.265 81.46 16.66 79.76 16.66 79.76C11.665 76.355 17.035 76.42 17.035 76.42C22.56 76.81 25.46 82.09 25.46 82.09C30.365 90.49 38.335 88.065 41.47 86.66C41.97 83.11 43.39 80.685 44.96 79.31C32.75 77.92 19.91 73.2 19.91 52.125C19.91 46.125 22.05 41.21 25.57 37.365C25 35.975 23.115 30.38 26.11 22.815C26.11 22.815 30.725 21.33 41.235 28.45C45.7216 27.2285 50.3501 26.6065 55 26.6C59.6517 26.6033 64.2823 27.2254 68.77 28.45C79.27 21.33 83.88 22.81 83.88 22.81C86.88 30.38 84.995 35.975 84.43 37.365C87.955 41.21 90.08 46.12 90.08 52.125C90.08 73.255 77.22 77.905 64.97 79.265C66.945 80.965 68.705 84.315 68.705 89.45C68.705 96.8 68.635 102.735 68.635 104.535C68.635 106.01 69.63 107.72 72.415 107.185C94.255 99.895 110 79.295 110 55C110 24.625 85.37 0 54.995 0Z" fill="black"/>
</svg>
