<svg width="57" height="62" viewBox="0 0 57 62" fill="none" xmlns="http://www.w3.org/2000/svg">
<path d="M41 61C41 61 41 53.4187 41 51C41 48.9143 41.502 44.46 39.3333 42.6667C43.9623 42.2497 47.61 40.726 51 37.6667C54.39 34.6073 56 29.9583 56 22.6667C56 17.6667 55.1667 14.3333 52.6667 11C53.621 8.39737 53.8127 4.33333 52.6667 1C47.4583 1 42.7517 4.5821 41 6C39.7073 5.66637 36.561 4.33333 31 4.33333C25.439 4.33333 22.2928 5.66637 21 6C19.2485 4.5821 14.5417 1 9.33333 1C8.1875 4.33333 8.37903 8.39737 9.33333 11C6.83333 14.3333 6 17.6667 6 22.6667C6 29.9583 7.61003 34.6073 11 37.6667C14.39 40.726 18.0377 42.2497 22.6667 42.6667C20.4981 44.46 21 48.9143 21 51C21 53.4187 21 61 21 61" stroke="#6B6B6B" stroke-width="2" stroke-linecap="round" stroke-linejoin="round"/>
<path d="M21 54.3333C16.3125 54.3333 11.5208 52.4583 8.70833 50.375C5.89583 48.2916 5.0625 44.854 1 42.6666" stroke="#6B6B6B" stroke-width="2" stroke-linecap="round" stroke-linejoin="round"/>
</svg>
