<svg width="62" height="62" viewBox="0 0 62 62" fill="none" xmlns="http://www.w3.org/2000/svg">
<path d="M35.4467 44.5167L32.5867 48.4767C35.3 50.8967 38.6733 52.1067 42.7067 52.1067C45.7867 52.0333 48.1333 51.24 49.7467 49.7233C51.3867 48.1833 52.2033 46.35 52.2033 44.2233C52.2033 42.1467 51.63 40.4333 50.48 39.09C49.3333 37.7467 47.4 36.67 44.6867 35.8633C42.44 35.18 40.8533 34.5567 39.92 33.9933C38.9933 33.4067 38.5267 32.6967 38.5267 31.8667C38.5267 31.11 38.9067 30.5 39.6633 30.0333C40.4233 29.5667 41.4367 29.3367 42.7067 29.3367C43.64 29.3367 44.6867 29.52 45.86 29.8867C47.0333 30.2033 48.0733 30.72 48.9767 31.4267L51.5433 27.43C49.2967 25.62 46.3133 24.7167 42.5967 24.7167C39.9333 24.7167 37.7467 25.4 36.0333 26.77C34.2733 28.1367 33.3933 29.8367 33.3933 31.8667C33.42 34.0167 34.1267 35.6933 35.52 36.89C36.94 38.09 38.9533 39.0667 41.57 39.8233C43.7467 40.5067 45.2267 41.19 46.0067 41.8767C46.367 42.1838 46.6555 42.5663 46.8519 42.9971C47.0483 43.4279 47.1478 43.8966 47.1433 44.37C47.1616 44.8035 47.0667 45.2343 46.868 45.6201C46.6693 46.0058 46.3736 46.3332 46.01 46.57C45.2267 47.1067 44.1 47.3767 42.6333 47.3767C40.24 47.4 37.8433 46.4467 35.4467 44.5167ZM17.0133 46.6433C16.2083 46.1362 15.5106 45.476 14.96 44.7L11.5133 47.5233C12.54 49.2567 13.8133 50.47 15.3267 51.1533C16.7433 51.7867 18.37 52.1067 20.2033 52.1067C21.2033 52.1067 22.2433 51.9467 23.32 51.63C24.4113 51.3043 25.4228 50.7549 26.29 50.0167C27.88 48.7467 28.71 46.6667 28.7833 43.7833V25.1567H23.8333V42.83C23.8333 44.5167 23.4533 45.7033 22.7 46.3867C21.94 47.0467 20.9867 47.3767 19.8367 47.3767C18.7367 47.3767 17.7967 47.1333 17.0133 46.6433ZM1 11C1 8.34783 2.05357 5.8043 3.92893 3.92893C5.8043 2.05357 8.34783 1 11 1H51C53.6522 1 56.1957 2.05357 58.0711 3.92893C59.9464 5.8043 61 8.34783 61 11V51C61 53.6522 59.9464 56.1957 58.0711 58.0711C56.1957 59.9464 53.6522 61 51 61H11C8.34783 61 5.8043 59.9464 3.92893 58.0711C2.05357 56.1957 1 53.6522 1 51V11ZM11 7.66667C10.1159 7.66667 9.2681 8.01786 8.64298 8.64298C8.01786 9.2681 7.66667 10.1159 7.66667 11V51C7.66667 51.8841 8.01786 52.7319 8.64298 53.357C9.2681 53.9821 10.1159 54.3333 11 54.3333H51C51.8841 54.3333 52.7319 53.9821 53.357 53.357C53.9821 52.7319 54.3333 51.8841 54.3333 51V11C54.3333 10.1159 53.9821 9.2681 53.357 8.64298C52.7319 8.01786 51.8841 7.66667 51 7.66667H11Z" stroke="#6B6B6B" stroke-linecap="round" stroke-linejoin="round"/>
</svg>
