<svg width="120" height="120" viewBox="0 0 120 120" fill="none" xmlns="http://www.w3.org/2000/svg">
<path d="M91.875 0H28.125C12.592 0 0 12.592 0 28.125V91.875C0 107.408 12.592 120 28.125 120H91.875C107.408 120 120 107.408 120 91.875V28.125C120 12.592 107.408 0 91.875 0Z" fill="white"/>
<path d="M91.875 0H28.125C12.592 0 0 12.592 0 28.125V91.875C0 107.408 12.592 120 28.125 120H91.875C107.408 120 120 107.408 120 91.875V28.125C120 12.592 107.408 0 91.875 0Z" fill="#0A66C2"/>
<path d="M86.5852 102.04H100.305C100.803 102.04 101.28 101.842 101.631 101.491C101.983 101.139 102.18 100.663 102.18 100.165L102.188 71.1769C102.188 56.0255 98.9227 44.3794 81.2166 44.3794C74.4858 44.1291 68.1384 47.5987 64.7133 53.3925C64.6965 53.4206 64.671 53.4425 64.6407 53.4548C64.6103 53.4671 64.5768 53.4692 64.5452 53.4606C64.5136 53.452 64.4856 53.4334 64.4656 53.4075C64.4456 53.3815 64.4346 53.3498 64.4344 53.317V47.6531C64.4344 47.1558 64.2368 46.6789 63.8852 46.3273C63.5336 45.9757 63.0567 45.7781 62.5594 45.7781H49.5389C49.0416 45.7781 48.5647 45.9757 48.2131 46.3273C47.8615 46.6789 47.6639 47.1558 47.6639 47.6531V100.162C47.6639 100.66 47.8615 101.137 48.2131 101.488C48.5647 101.84 49.0416 102.037 49.5389 102.037H63.2583C63.7556 102.037 64.2325 101.84 64.5841 101.488C64.9357 101.137 65.1333 100.66 65.1333 100.162V74.2064C65.1333 66.8672 66.5255 59.7595 75.6244 59.7595C84.5939 59.7595 84.7102 68.1577 84.7102 74.6817V100.165C84.7102 100.662 84.9077 101.139 85.2593 101.491C85.611 101.842 86.0879 102.04 86.5852 102.04ZM17.8125 27.9502C17.8125 33.5119 22.3908 38.0878 27.9525 38.0878C33.5128 38.0873 38.0883 33.5086 38.0883 27.9483C38.0873 22.388 33.5114 17.8125 27.9506 17.8125C22.3884 17.8125 17.8125 22.3889 17.8125 27.9502ZM21.0745 102.04H34.8122C35.3095 102.04 35.7864 101.842 36.138 101.491C36.4896 101.139 36.6872 100.662 36.6872 100.165V47.6531C36.6872 47.1558 36.4896 46.6789 36.138 46.3273C35.7864 45.9757 35.3095 45.7781 34.8122 45.7781H21.0745C20.5773 45.7781 20.1003 45.9757 19.7487 46.3273C19.3971 46.6789 19.1995 47.1558 19.1995 47.6531V100.165C19.1995 100.662 19.3971 101.139 19.7487 101.491C20.1003 101.842 20.5773 102.04 21.0745 102.04Z" fill="white"/>
</svg>
