<svg width="56" height="50" viewBox="0 0 56 50" fill="none" xmlns="http://www.w3.org/2000/svg">
<path d="M28 13.3333V25M28 25V36.6666M28 25H42.5833C44.1304 25 45.6142 25.6145 46.7081 26.7085C47.8021 27.8025 48.4167 29.2862 48.4167 30.8333V36.6666M28 25H13.4167C11.8696 25 10.3858 25.6145 9.29188 26.7085C8.19791 27.8025 7.58333 29.2862 7.58333 30.8333V36.6666M22.1667 1.66663H33.8333V13.3333H22.1667V1.66663ZM22.1667 36.6666H33.8333V48.3333H22.1667V36.6666ZM1.75 36.6666H13.4167V48.3333H1.75V36.6666ZM42.5833 36.6666H54.25V48.3333H42.5833V36.6666Z" stroke="#6B6B6B" stroke-width="3" stroke-linecap="round" stroke-linejoin="round"/>
</svg>
