<svg width="128" height="106" viewBox="0 0 128 106" fill="none" xmlns="http://www.w3.org/2000/svg">
<path d="M114.896 26.8881C114.974 28.0171 114.974 29.1451 114.974 30.2841C114.974 64.9841 88.557 105.004 40.254 105.004V104.984C25.9841 105.004 12.0099 100.917 0 93.2101C2.075 93.4601 4.16 93.5851 6.25 93.5901C18.0771 93.5996 29.564 89.6328 38.865 82.3271C33.385 82.2236 28.0743 80.4102 23.6754 77.1404C19.2766 73.8705 16.0095 69.3078 14.331 64.0901C18.268 64.8501 22.324 64.6931 26.188 63.6371C13.936 61.1621 5.122 50.3981 5.122 37.8971V37.5641C8.77431 39.5988 12.862 40.7261 17.041 40.8511C5.5 33.1391 1.945 17.7881 8.913 5.78714C15.5059 13.8998 23.7316 20.5349 33.0558 25.2614C42.3801 29.988 52.5943 32.7003 63.035 33.2221C61.9943 28.7409 62.1483 24.065 63.4817 19.662C64.8151 15.2589 67.281 11.2831 70.633 8.13214C81.21 -1.81086 97.845 -1.30086 107.787 9.27114C113.668 8.10988 119.308 5.9536 124.464 2.89514C122.503 8.97584 118.401 14.1375 112.92 17.4201C118.126 16.8064 123.209 15.4124 128 13.2851C124.476 18.5628 120.038 23.1693 114.896 26.8881Z" fill="#1D9BF0"/>
</svg>
